<svg xmlns="http://www.w3.org/2000/svg" width="42" height="32" viewBox="0 0 42 32">
  <g id="connected-icon" fill="none">
    <path d="M32.03,31.6H6.4v-.056a5.714,5.714,0,0,1-.8.056,5.531,5.531,0,1,1,0-11.062h.015A12.76,12.76,0,0,1,4.8,16c0-5.564,3.4-10.074,7.6-10.074a6.708,6.708,0,0,1,5.182,2.7,5.866,5.866,0,0,1,.98-.6C19.293,3.445,22.435,0,26.2,0,30.508,0,34,4.51,34,10.074a13.02,13.02,0,0,1-.122,1.786q.16-.008.322-.008c4.308,0,7.8,4.511,7.8,10.074S38.508,32,34.2,32A6.181,6.181,0,0,1,32.03,31.6Z" stroke="none"/>
    <path d="M 34.19990158081055 30 C 35.65082168579102 30 37.04796981811523 29.22756004333496 38.13399124145508 27.82497978210449 C 39.33729934692383 26.27088928222656 40 24.17593955993652 40 21.92604064941406 C 40 19.67609977722168 39.3372917175293 17.58107948303223 38.13396072387695 16.02689933776855 C 37.04793167114258 14.62421989440918 35.65077972412109 13.85173034667969 34.19990158081055 13.85173034667969 C 34.12754821777344 13.85173034667969 34.05443954467773 13.85365009307861 33.98260879516602 13.85743045806885 L 31.56414031982422 13.98468971252441 L 31.89641952514648 11.58578014373779 C 31.96497917175293 11.09084033966064 31.99974060058594 10.58218955993652 31.99974060058594 10.07396030426025 C 31.99974060058594 7.823999881744385 31.33708953857422 5.729040145874023 30.13386917114258 4.174970149993896 C 29.04795074462891 2.772419929504395 27.65086936950684 2 26.20000076293945 2 C 23.5049991607666 2 21.12289047241211 4.667809963226318 20.53585052490234 8.343449592590332 L 20.37133026123047 9.373590469360352 L 19.4323902130127 9.828160285949707 C 19.21220016479492 9.934760093688965 18.99511909484863 10.06849002838135 18.78716087341309 10.2256498336792 L 17.24365997314453 11.39206027984619 L 16.02663993835449 9.888150215148926 C 15.00273036956787 8.622859954833984 13.71469020843506 7.926040172576904 12.39980030059814 7.926040172576904 C 11.01241016387939 7.926040172576904 9.670929908752441 8.691399574279785 8.622480392456055 10.08113956451416 C 7.447150230407715 11.6390495300293 6.799870014190674 13.74108028411865 6.799870014190674 16 C 6.799870014190674 17.33485984802246 7.03617000579834 18.6591796875 7.483240127563477 19.82979965209961 L 8.524080276489258 22.55522918701172 L 5.606689929962158 22.54331970214844 L 5.600649833679199 22.54328918457031 L 5.60014009475708 22.54328918457031 C 3.615020036697388 22.54328918457031 2 24.12714004516602 2 26.07395935058594 C 2 28.02096939086914 3.615020036697388 29.60498046875 5.60014009475708 29.60498046875 C 5.774459838867188 29.60498046875 5.949450016021729 29.59273910522461 6.120240211486816 29.5686092376709 L 8.400059700012207 29.24648094177246 L 8.400059700012207 29.60498046875 L 32.02985000610352 29.60498046875 L 32.3909912109375 29.60498046875 L 32.72932052612305 29.73127937316895 C 33.20695877075195 29.90958976745605 33.70172882080078 30 34.19990158081055 30 M 34.19990158081055 32 C 33.44688034057617 32 32.7187385559082 31.86215019226074 32.02985000610352 31.60498046875 L 6.400060176849365 31.60498046875 L 6.400060176849365 31.54894065856934 C 6.13877010345459 31.58585929870605 5.871779918670654 31.60498046875 5.60014009475708 31.60498046875 C 2.507030010223389 31.60498046875 0 29.12853050231934 0 26.07395935058594 C 0 23.01938056945801 2.507030010223389 20.54328918457031 5.60014009475708 20.54328918457031 C 5.605050086975098 20.54328918457031 5.609950065612793 20.54331970214844 5.614850044250488 20.5433406829834 C 5.093490123748779 19.17816925048828 4.799870014190674 17.6347599029541 4.799870014190674 16 C 4.799870014190674 10.43626976013184 8.202580451965332 5.926040172576904 12.39980030059814 5.926040172576904 C 14.40227031707764 5.926040172576904 16.22380065917969 6.952449798583984 17.58135032653809 8.630020141601562 C 17.89219093322754 8.395119667053223 18.21958923339844 8.193260192871094 18.56088066101074 8.028030395507812 C 19.29281044006348 3.44513988494873 22.4349308013916 0 26.20000076293945 0 C 30.50774955749512 0 33.99974060058594 4.510220050811768 33.99974060058594 10.07396030426025 C 33.99974060058594 10.68350982666016 33.95780944824219 11.28046035766602 33.87751007080078 11.86019039154053 C 33.98450088500977 11.85455989837646 34.09183883666992 11.85173034667969 34.19990158081055 11.85173034667969 C 38.50764846801758 11.85173034667969 42 16.3623104095459 42 21.92604064941406 C 42 27.48978042602539 38.50764846801758 32 34.19990158081055 32 Z" stroke="none" fill="#6d6e6f"/>
  </g>
</svg>
