<svg xmlns="http://www.w3.org/2000/svg" width="32" height="34" viewBox="0 0 32 34">
  <path id="settings-icon" d="M16.632,28.167c0-.071,0-.142.005-.212a3.787,3.787,0,0,1,7.567,0h0c0,.07.006.141.006.212a3.79,3.79,0,1,1-7.579,0ZM0,27.955H16.637ZM7.79,16q0-.107.005-.213h0a3.787,3.787,0,0,1,7.567,0c0,.071.006.142.006.213A3.79,3.79,0,1,1,7.79,16Zm7.573-.213H32Zm1.27-11.955c0-.071,0-.142.005-.212a3.787,3.787,0,0,1,7.567,0h0c0,.07.006.141.006.212a3.79,3.79,0,1,1-7.579,0ZM0,3.62H16.637Z" transform="translate(0 1)" fill="rgba(0,0,0,0)" stroke="#6d6e6f" stroke-width="2"/>
</svg>
